<?xml version="1.0" encoding="UTF-8"?><svg id="Layer_2" xmlns="http://www.w3.org/2000/svg" viewBox="0 0 1077.39 202.93"><g id="Layer_1-2"><path d="M226.48,101.51c0-34.88,22.68-61,57.22-61,26.8,0,49.83,14.78,49.83,32.82,0,7.9-5.33,13.57-14.26,13.57-21.48,0-21.13-34.19-41.75-34.19-10.83,0-20.79,10.83-20.79,29.9,0,33.51,19.07,55.33,38.66,55.33,15.98,0,24.06-11,29.04-18.21,3.27-3.78,9.62-2.58,9.45,3.09-.86,21.82-16.15,42.96-48.46,42.96-34.37,0-58.94-30.93-58.94-64.26Z" fill="#fff"/><path d="M433.88,159.42c0,4.64-6.7,5.67-17.7,5.67s-15.29-2.58-16.15-9.97c-4.47,6.87-12.54,10.65-24.23,10.65-17.35,0-32.13-11.86-32.13-33.85v-28.7c0-8.08-6.87-10.14-6.87-14.43v-.69c0-1.89,1.55-3.61,3.95-3.95l25.6-3.44c4.98-.69,8.08.34,8.08,3.44l-.52,50.86c-.17,14.09,3.44,19.42,11,19.42,6.36,0,11.34-6.7,11.34-17.18v-34.02c0-8.08-6.87-10.14-6.87-14.43v-.69c0-1.89,1.55-3.61,3.95-3.95l25.6-3.44c4.98-.69,7.56.34,7.56,3.44v61c0,13.92,7.39,7.22,7.39,14.26Z" fill="#fff"/><path d="M531.65,121.44c0,27.15-19.25,44.33-40.55,44.33-7.22,0-12.89-1.72-17.53-4.98v20.79c0,7.9,7.73,9.97,7.73,14.78v.69c0,2.06-1.72,3.26-4.12,3.26h-36.43c-2.41,0-4.12-1.2-4.12-3.26v-.69c0-4.81,6.87-6.87,6.87-14.78v-70.45c0-7.39-8.25-8.25-8.25-13.23v-.86c0-2.06,1.55-3.61,3.95-4.98l22.68-11.17c5.16-2.41,7.22,0,7.22,3.44v4.98c4.3-6.01,12.2-9.45,21.99-9.45,19.42,0,40.55,13.57,40.55,41.58ZM501.41,135.71c0-18.56-4.98-47.42-17.53-47.42-6.19,0-10.31,5.5-10.31,13.57v31.1c0,14.61,7.22,24.4,14.78,24.4,8.76,0,13.06-7.56,13.06-21.65Z" fill="#fff"/><path d="M535.78,122.65c0-25.43,21.82-42.79,46.39-42.79,25.77,0,47.08,17.87,47.08,43.13s-20.79,42.79-45.88,42.79-47.6-18.21-47.6-43.13ZM597.98,136.22c0-13.4-7.04-47.94-20.62-47.94-8.25,0-11.17,7.56-11.17,21.48s6.87,47.6,20.79,47.6c8.08,0,11-8.25,11-21.13Z" fill="#fff"/><path d="M733.38,160.28v.69c0,2.06-1.72,3.26-4.12,3.26h-34.37c-2.58,0-4.12-1.2-4.12-3.26v-.69c0-4.98,6.7-7.04,6.19-14.95l-1.72-30.76c-.86-17.01-4.12-23.37-11.86-23.37s-11.17,6.7-11.17,16.67v37.46c0,7.9,7.56,9.97,7.56,14.95v.69c0,2.06-1.55,3.26-4.12,3.26h-37.12c-2.58,0-4.12-1.2-4.12-3.26v-.69c0-4.98,7.56-7.04,7.56-14.95v-33.85c0-8.25-9.11-9.28-9.11-14.26v-.52c0-2.06,1.72-3.09,4.12-4.29l24.06-11.86c4.29-2.23,6.53.69,6.53,4.12v8.08c4.64-8.25,13.23-12.89,24.57-12.89,14.95,0,30.76,8.42,32.82,35.74l2.23,29.73c.52,7.9,6.19,9.97,6.19,14.95Z" fill="#fff"/><path d="M814.31,139.31c-.52,9.45-10.31,26.46-35.05,26.46s-43.47-17.53-43.47-43.47,19.59-42.27,42.61-42.44c20.45-.17,34.19,9.79,34.19,24.92,0,12.03-11.34,21.99-27.49,24.57-6.01,1.03-12.03,1.38-17.18,1.2,4.47,8.59,12.03,13.92,21.65,13.92,8.59,0,15.29-3.44,18.39-7.56,2.4-2.41,6.53-1.37,6.36,2.41ZM763.11,108.21c0,4.64.52,9.11,1.55,13.23,3.26.17,6.36,0,8.59-.34,7.56-1.38,11.69-6.7,11.69-18.56-.17-7.56-4.47-13.58-10.14-13.58-7.04,0-11.68,7.9-11.68,19.25Z" fill="#fff"/><path d="M818.27,145.5c0-7.73,5.33-11,12.2-11,17.18,0,11.34,23.54,25.6,23.54,5.16,0,9.28-2.58,9.28-9.45,0-22.51-45.54-9.28-45.54-42.61,0-15.29,14.78-26.12,36.26-26.12s36.08,9.45,36.08,20.62c0,6.01-5.16,10.48-11.51,10.48-16.67,0-11.17-23.2-23.03-23.2-5.33,0-8.08,4.81-8.08,9.79,0,23.54,43.99,11.17,43.99,42.79,0,14.26-13.57,25.26-37.46,25.26-21.65,0-37.8-8.08-37.8-20.1Z" fill="#fff"/><path d="M897.31,122.65c0-26.8,20.28-42.61,43.64-42.79,20.1-.17,36.6,10.14,36.6,25.43,0,5.16-3.26,10.31-12.54,9.97-17.53-1.03-15.98-27.15-28.7-26.98-7.22.17-12.03,8.76-12.03,19.24,0,22.34,11,37.12,28.01,37.12,9.62,0,15.46-5.15,19.07-9.97,2.23-2.75,6.53-1.89,6.53,1.89-.52,14.95-12.37,29.21-35.91,29.21-26.98,0-44.68-20.62-44.68-43.13Z" fill="#fff"/><path d="M1077.39,159.42c0,4.64-6.7,5.67-17.7,5.67s-15.29-2.58-16.15-9.97c-4.47,6.87-12.54,10.65-24.23,10.65-17.35,0-32.13-11.86-32.13-33.85v-28.7c0-8.08-6.87-10.14-6.87-14.43v-.69c0-1.89,1.55-3.61,3.95-3.95l25.6-3.44c4.98-.69,8.08.34,8.08,3.44l-.52,50.86c-.17,14.09,3.44,19.42,11,19.42,6.36,0,11.34-6.7,11.34-17.18v-34.02c0-8.08-6.87-10.14-6.87-14.43v-.69c0-1.89,1.55-3.61,3.95-3.95l25.6-3.44c4.98-.69,7.56.34,7.56,3.44v61c0,13.92,7.39,7.22,7.39,14.26Z" fill="#fff"/><path d="M69.63,10.33C72.8,5.39,76.69,2.02,80.75,0c-1.15-.03-2.29.02-3.4.17-13.08,1.68-27.66,15.82-25.71,50.11l6.52-.37c-.9-15.83,2.48-32.31,11.48-39.58Z" fill="#fff"/><path d="M94.81,4.52c-1.96-.41-3.98-.51-6.05-.24-2.44.31-4.64,1.11-6.61,2.31,14.54,1.34,25.81,20.28,29.78,39.96l6.4-1.29c-4.3-21.28-13.53-34.42-23.52-40.73Z" fill="#fff"/><path d="M66.8,51.19c-1.95-34.29,12.63-48.42,25.71-50.11,14.95-1.94,34.17,11.36,40.98,45.08l-6.4,1.29c-4.33-21.43-17.3-42.02-33.75-39.9-15.42,1.99-21.17,23.16-20.03,43.26l-6.52.37Z" fill="#fff"/><path d="M27.56,40.68l-6.98,2.12c-.92.17-1.86.19-2.78.04l-5.2-.83c-1.43-.42-2.83.76-2.96,2.48L.01,171.67c-.14,1.8.66,3.54,2.11,4.62l31.79,26.64-6.35-162.25Z" fill="#fff"/><path d="M185.29,171.42l-14.67-128.63c-.16-1.4-1.18-2.44-2.38-2.44l-136.39.34,6.35,162.25,145.1-28.36c1.28-.25,2.15-1.64,1.98-3.15ZM114.47,161.02c-28.44,5.89-49.06-15.28-49.33-42.92-.25-29.1,17.57-50.37,44.93-49.22,21.21,1.02,39.95,11.81,40.61,23.76.29,5.22-3.77,9.13-10.95,9.43-17.27.78-17.92-23.84-34.31-24.18-8.61-.15-16.38,8.26-16.09,23.26.54,26.22,16.54,40.8,32.58,38.39,13.08-1.92,19.31-10.3,23.11-15.62,2.52-2.79,7.72-2.52,7.8,1.2.14,14.32-11.66,30.52-38.36,35.89Z" fill="#fff"/></g></svg>