<?xml version="1.0" encoding="UTF-8"?><svg id="Layer_2" xmlns="http://www.w3.org/2000/svg" viewBox="0 0 1016.9 202.93"><g id="Layer_1-2"><path d="M69.63,10.33C72.8,5.39,76.69,2.02,80.75,0c-1.15-.03-2.29.02-3.4.17-13.08,1.68-27.66,15.82-25.71,50.11l6.52-.37c-.9-15.83,2.48-32.31,11.48-39.58Z" fill="#fff"/><path d="M94.81,4.52c-1.96-.41-3.98-.51-6.05-.24-2.44.31-4.64,1.11-6.61,2.31,14.54,1.34,25.81,20.28,29.78,39.96l6.4-1.29c-4.3-21.28-13.53-34.42-23.52-40.73Z" fill="#fff"/><path d="M66.8,51.19c-1.95-34.29,12.63-48.42,25.71-50.11,14.95-1.94,34.17,11.36,40.98,45.08l-6.4,1.29c-4.33-21.43-17.3-42.02-33.75-39.9-15.42,1.99-21.17,23.16-20.03,43.26l-6.52.37Z" fill="#fff"/><path d="M27.56,40.68l-6.98,2.12c-.92.17-1.86.19-2.78.04l-5.2-.83c-1.43-.42-2.83.76-2.96,2.48L.01,171.67c-.14,1.8.66,3.54,2.11,4.62l31.79,26.64-6.35-162.25Z" fill="#fff"/><path d="M185.29,171.42l-14.67-128.63c-.16-1.4-1.18-2.44-2.38-2.44l-136.39.34,6.35,162.25,145.1-28.36c1.28-.25,2.15-1.64,1.98-3.15ZM160.25,149.33l.06.48c.17,1.44-1,2.51-3.11,2.88l-34.8,6.19c-1.97.35-3.32-.33-3.47-1.88l-.05-.52c-.33-3.61,7.51-6.61,3.33-11.65l-22.18-28.22-9.95,11.78,1.6,20.91c.47,6.2,6.79,6.93,7.09,10.66l.04.53c.13,1.6-1.06,2.76-3.18,3.14l-30.71,5.46c-1.97.35-3.44-.39-3.54-2.09l-.03-.57c-.24-3.97,5.27-6.73,4.86-13.2l-4.31-68.99c-.4-6.46-5.92-7.96-6.16-11.93l-.03-.57c-.1-1.7,1.19-2.72,3.08-2.77l29.41-.67c2.02-.05,3.31.86,3.44,2.46l.04.53c.3,3.74-5.53,5.56-5.06,11.77l2.35,30.75,27.68-32.05c4.68-5.19-1.66-7.52-2-11.11l-.05-.51c-.15-1.54.98-2.46,3.01-2.51l21.99-.5c1.89-.04,3.34.78,3.5,2.24l.06.49c.39,3.41-6.46,5.38-11.7,11.21l-15.95,17.69,33.98,41.6c5.41,6.07,10.36,5.61,10.77,8.97Z" fill="#fff"/><path d="M351.96,160.27v.69c0,2.06-1.55,3.27-4.13,3.27h-42.48c-2.41,0-3.96-1.2-3.96-3.27v-.69c0-4.82,9.8-7.05,5.33-14.62l-24.08-40.59-13.42,13.59v26.66c0,7.91,7.57,10.15,7.57,14.96v.69c0,2.06-1.55,3.27-4.13,3.27h-37.5c-2.41,0-4.13-1.2-4.13-3.27v-.69c0-4.82,6.88-7.05,6.88-14.96V60.86c0-7.91-6.88-9.98-6.88-14.79v-.69c0-2.06,1.72-3.27,4.13-3.27h37.5c2.58,0,4.13,1.2,4.13,3.27v.69c0,4.82-7.57,6.88-7.57,14.79v39.22l38.01-39.04c6.54-6.71-1.2-10.15-1.2-14.96v-.69c0-2.06,1.55-3.27,4.13-3.27h28.04c2.41,0,4.13,1.2,4.13,3.27v.69c0,4.82-8.94,7.22-16.34,14.96l-22.19,22.53,36.46,61.75c5.68,9.63,11.7,10.15,11.7,14.96Z" fill="#fff"/><path d="M440.2,159.58c0,4.64-6.71,5.68-17.71,5.68s-15.31-2.58-16.17-9.98c-4.47,6.88-12.56,10.66-24.25,10.66-17.37,0-32.16-11.87-32.16-33.88v-28.72c0-8.08-6.88-10.15-6.88-14.45v-.69c0-1.89,1.55-3.61,3.96-3.96l25.63-3.44c4.99-.69,8.08.34,8.08,3.44l-.52,50.91c-.17,14.1,3.44,19.44,11.01,19.44,6.36,0,11.35-6.71,11.35-17.2v-34.06c0-8.08-6.88-10.15-6.88-14.45v-.69c0-1.89,1.55-3.61,3.96-3.96l25.63-3.44c4.99-.69,7.57.34,7.57,3.44v61.06c0,13.93,7.4,7.22,7.4,14.28Z" fill="#fff"/><path d="M538.06,121.57c0,27.18-19.26,44.38-40.59,44.38-7.22,0-12.9-1.72-17.54-4.99v20.81c0,7.91,7.74,9.98,7.74,14.79v.69c0,2.06-1.72,3.27-4.13,3.27h-36.46c-2.41,0-4.13-1.2-4.13-3.27v-.69c0-4.82,6.88-6.88,6.88-14.79v-70.52c0-7.4-8.26-8.26-8.26-13.24v-.86c0-2.06,1.55-3.61,3.96-4.99l22.7-11.18c5.16-2.41,7.22,0,7.22,3.44v4.99c4.3-6.02,12.21-9.46,22.02-9.46,19.44,0,40.59,13.59,40.59,41.62ZM507.79,135.85c0-18.58-4.99-47.47-17.54-47.47-6.19,0-10.32,5.5-10.32,13.59v31.13c0,14.62,7.22,24.42,14.79,24.42,8.77,0,13.07-7.57,13.07-21.67Z" fill="#fff"/><path d="M542.19,122.78c0-25.46,21.84-42.83,46.44-42.83,25.8,0,47.13,17.89,47.13,43.17s-20.81,42.83-45.92,42.83-47.64-18.23-47.64-43.17ZM604.45,136.37c0-13.42-7.05-47.99-20.64-47.99-8.26,0-11.18,7.57-11.18,21.5s6.88,47.64,20.81,47.64c8.08,0,11.01-8.26,11.01-21.16Z" fill="#fff"/><path d="M739.99,160.45v.69c0,2.06-1.72,3.27-4.13,3.27h-34.4c-2.58,0-4.13-1.2-4.13-3.27v-.69c0-4.99,6.71-7.05,6.19-14.96l-1.72-30.79c-.86-17.03-4.13-23.39-11.87-23.39s-11.18,6.71-11.18,16.68v37.5c0,7.91,7.57,9.98,7.57,14.96v.69c0,2.06-1.55,3.27-4.13,3.27h-37.15c-2.58,0-4.13-1.2-4.13-3.27v-.69c0-4.99,7.57-7.05,7.57-14.96v-33.88c0-8.26-9.12-9.29-9.12-14.28v-.52c0-2.06,1.72-3.1,4.13-4.3l24.08-11.87c4.3-2.24,6.54.69,6.54,4.13v8.08c4.64-8.26,13.24-12.9,24.59-12.9,14.96,0,30.79,8.43,32.85,35.78l2.24,29.76c.52,7.91,6.19,9.98,6.19,14.96Z" fill="#fff"/><path d="M742.22,122.78c0-25.46,21.84-42.83,46.44-42.83,25.8,0,47.13,17.89,47.13,43.17s-20.81,42.83-45.92,42.83-47.64-18.23-47.64-43.17ZM804.49,136.37c0-13.42-7.05-47.99-20.64-47.99-8.26,0-11.18,7.57-11.18,21.5s6.88,47.64,20.81,47.64c8.08,0,11.01-8.26,11.01-21.16Z" fill="#fff"/><path d="M928.5,84.94v.69c0,4.82-8.6,7.22-11.52,14.79l-22.19,59.34c-1.03,3.1-2.92,4.47-6.02,4.47h-15.14c-3.27,0-4.64-1.38-6.19-4.47l-26.14-59.34c-3.27-7.05-9.12-9.98-9.12-14.79v-.69c0-2.06,1.55-3.27,3.96-3.27h39.56c2.24,0,3.78,1.38,3.78,3.44v.69c0,4.64-6.36,6.19-2.92,15.14l14.79,38.87,12.56-34.57c4.64-13.59-6.19-14.79-6.19-19.44v-.69c0-2.06,1.55-3.44,3.96-3.44h22.88c2.41,0,3.96,1.2,3.96,3.27Z" fill="#fff"/><path d="M923.34,122.78c0-25.46,21.84-42.83,46.44-42.83,25.8,0,47.13,17.89,47.13,43.17s-20.81,42.83-45.92,42.83-47.64-18.23-47.64-43.17ZM985.6,136.37c0-13.42-7.05-47.99-20.64-47.99-8.26,0-11.18,7.57-11.18,21.5s6.88,47.64,20.81,47.64c8.08,0,11.01-8.26,11.01-21.16Z" fill="#fff"/></g></svg>