<?xml version="1.0" encoding="UTF-8"?><svg id="Layer_2" xmlns="http://www.w3.org/2000/svg" viewBox="0 0 1520.94 238.27"><g id="Layer_1-2"><path d="M592.86,166.82v70.44h-38.43V42.6l.95-.94h37.49v14.47c23.45-22.08,60.71-22.59,85.06-1.58,35.73,30.83,31.84,95.37-10.08,118.89-22.9,12.85-54.9,10.53-74.98-6.62ZM626.76,76.43c-44.25,1.87-41.45,71.85,5.47,67.73,42.1-3.69,39.14-69.61-5.47-67.73Z" fill="#0d2245"/><path d="M1040.38,125.31c.85,5.07,5.55,10.28,9.5,13.47,18.07,14.59,46.01,10.91,65.72,1.7l14.82,27.22c-8.04,5.72-17.54,9.18-27.16,11.27-40.03,8.71-87.36-4.01-100.23-46.89-17.79-59.27,37.85-109.57,95.45-90.26,32.56,10.92,47.03,41.41,45.2,74.36-.15,2.64-.46,7.05-1.57,9.13h-101.75ZM1105.27,98.89c-3.08-36.84-62.05-36.44-65.52,0h65.52Z" fill="#0d2245"/><path d="M779.81,38.7c52.42-3.17,90.41,45.85,72.59,95.74-22.96,64.3-119.24,61.25-137.81-4.59-12.82-45.49,18.39-88.31,65.21-91.14ZM808.07,133.26c29.3-29.21-11.76-75.4-44.46-49.73-36.79,28.88,11.63,82.46,44.46,49.73Z" fill="#0d2245"/><path d="M448.46,41.66v75.79c0,27.77,35.19,30.59,46.33,8.52.79-1.56,3.44-8.49,3.44-9.78V42.6l.95-.94h38.75v136.48h-39.69v-15.09c-14.03,15.14-32.94,21.43-53.32,16.43-23.69-5.81-34.57-27.98-36.14-50.72V41.66s39.69,0,39.69,0Z" fill="#0d2245"/><path d="M1431.47,41.66v75.79c0,27.77,35.19,30.59,46.33,8.52.79-1.56,3.44-8.49,3.44-9.78V42.6l.95-.94h38.75v136.48h-39.69v-15.09c-14.03,15.14-32.94,21.43-53.32,16.43-23.69-5.81-34.57-27.98-36.14-50.72V41.66s39.69,0,39.69,0Z" fill="#0d2245"/><path d="M988.64,178.14h-38.43v-72.01c0-1.94-1.11-7.53-1.7-9.62-7.43-26.13-48.7-20.23-48.7,8.99v72.64h-39.06V42.6l.95-.94h38.12v15.09c7.64-7.77,16.16-14.26,27.08-16.67,35.69-7.87,60.35,16.21,61.74,50.96v87.1Z" fill="#0d2245"/><path d="M1259.07,53.08l-14.42,29.47c-14.31-6.17-31.66-12.75-47.55-11.31-10.95.99-15.86,9.2-4.53,15.19,21.75,11.5,65.15,10,70.18,43.15,3.94,25.92-12.3,44.98-36.98,50.16-27.76,5.83-59.92-1.63-82.9-17.95l-.29-.91,15.76-28.02c15.38,7.98,36.18,16.52,53.85,15.08,6.4-.52,17.65-4.61,11.32-12.54-4.92-6.16-29.12-10.32-37.46-12.92-21.95-6.84-40.07-18.78-37.72-44.57,4.62-50.66,79.18-45.84,110.72-24.83Z" fill="#0d2245"/><path d="M378.36,133.52l18.91,30.39c-10.91,9.72-24.85,15.18-39.33,16.74-50.78,5.45-94.74-39.73-80.01-90.56,14.72-50.78,79.27-67.48,119.38-34.86l-19.83,31.08c-18.98-18.34-54.99-12.71-61.63,14.59-7.66,31.48,23.89,52.21,52.1,38.81,1.71-.81,9.78-6.62,10.42-6.18Z" fill="#0d2245"/><path d="M1366.37,133.52l18.91,30.39c-10.91,9.72-24.85,15.18-39.33,16.74-50.78,5.45-94.74-39.73-80.01-90.56,14.72-50.78,79.27-67.48,119.38-34.86l-19.83,31.08c-18.98-18.34-54.99-12.71-61.63,14.59-7.66,31.48,23.89,52.21,52.1,38.81,1.71-.81,9.78-6.62,10.42-6.18Z" fill="#0d2245"/><path d="M75.06,227.59L10.67,163.21c-14.23-14.23-14.23-37.31,0-51.54L114.21,8.13C119.42,2.93,126.48,0,133.83,0h88.83c8.62,0,15.6,6.98,15.6,15.6v88.83c0,7.36-2.93,14.42-8.13,19.62l-103.54,103.54c-14.23,14.23-37.31,14.23-51.54,0Z" fill="#5bd72c"/><rect x="152.46" y="43.6" width="42.21" height="42.21" rx="21.1" ry="21.1" transform="translate(96.59 -103.77) rotate(45)" fill="#fff"/><path d="M102.42,111.67l-45.87-45.87v143.28l45.87-45.87c14.23-14.23,14.23-37.31,0-51.54Z" fill="#4caf23"/><path d="M10.67,163.21l45.87,45.87V65.8L10.67,111.67c-14.23,14.23-14.23,37.31,0,51.54Z" fill="#acef8f"/></g></svg>