<?xml version="1.0" encoding="UTF-8"?><svg id="Layer_2" xmlns="http://www.w3.org/2000/svg" viewBox="0 0 333.47 50.3"><g id="Layer_1-2"><path d="M87.06,14.27l-6.47,3.56c-1.22-1.27-2.42-2.15-3.6-2.65-1.19-.49-2.58-.74-4.17-.74-2.91,0-5.26.87-7.05,2.6-1.8,1.73-2.69,3.96-2.69,6.66s.86,4.79,2.59,6.45c1.73,1.67,4,2.5,6.81,2.5,3.48,0,6.18-1.19,8.12-3.56l6.13,4.2c-3.32,4.32-8.01,6.48-14.06,6.48-5.45,0-9.71-1.61-12.79-4.84-3.08-3.23-4.63-7-4.63-11.33,0-3,.75-5.76,2.25-8.28s3.59-4.51,6.28-5.95c2.69-1.44,5.69-2.16,9.01-2.16,3.07,0,5.83.61,8.28,1.84,2.45,1.22,4.45,2.96,6.01,5.22Z" fill="#0d2245"/><path d="M89.37,8.01h7.86v14.92c0,2.9.2,4.92.6,6.05s1.04,2.01,1.93,2.63c.88.63,1.97.94,3.27.94s2.39-.31,3.3-.92c.9-.62,1.57-1.52,2.01-2.72.32-.89.49-2.8.49-5.72v-15.17h7.77v13.12c0,5.41-.43,9.11-1.28,11.1-1.04,2.43-2.58,4.29-4.61,5.59-2.03,1.3-4.61,1.95-7.74,1.95-3.4,0-6.14-.76-8.24-2.28-2.1-1.52-3.57-3.63-4.43-6.35-.61-1.88-.91-5.29-.91-10.25v-12.89Z" fill="#0d2245"/><path d="M127.43,8.01v3.42c1.4-1.4,2.92-2.46,4.55-3.16,1.63-.7,3.38-1.05,5.24-1.05,4.04,0,7.48,1.53,10.3,4.58,2.83,3.05,4.24,6.97,4.24,11.75s-1.46,8.47-4.38,11.57c-2.92,3.1-6.39,4.65-10.39,4.65-1.78,0-3.44-.32-4.98-.95-1.54-.64-3.06-1.67-4.58-3.12v14.6h-7.71V8.01h7.71ZM135.6,14.38c-2.45,0-4.48.83-6.09,2.5-1.61,1.67-2.42,3.85-2.42,6.55s.81,4.98,2.42,6.67c1.61,1.7,3.64,2.55,6.09,2.55s4.37-.86,5.99-2.59,2.43-3.93,2.43-6.6-.8-4.83-2.39-6.53c-1.59-1.7-3.61-2.55-6.03-2.55Z" fill="#0d2245"/><path d="M169.24,7.21c2.92,0,5.67.73,8.24,2.19,2.57,1.46,4.58,3.44,6.02,5.95,1.44,2.5,2.16,5.21,2.16,8.11s-.73,5.66-2.18,8.2c-1.45,2.54-3.43,4.53-5.94,5.96-2.5,1.43-5.27,2.15-8.28,2.15-4.44,0-8.23-1.58-11.37-4.74-3.14-3.16-4.71-7-4.71-11.51,0-4.84,1.77-8.87,5.32-12.1,3.11-2.81,6.69-4.21,10.73-4.21ZM169.37,14.52c-2.41,0-4.42.84-6.03,2.52-1.61,1.68-2.41,3.83-2.41,6.45s.79,4.88,2.38,6.55c1.59,1.67,3.6,2.5,6.03,2.5s4.46-.84,6.07-2.53c1.62-1.69,2.42-3.86,2.42-6.52s-.79-4.81-2.38-6.48c-1.59-1.66-3.62-2.49-6.09-2.49Z" fill="#0d2245"/><path d="M187.35,8.01h7.77v3.17c1.76-1.49,3.36-2.52,4.79-3.1,1.43-.58,2.89-.87,4.39-.87,3.07,0,5.68,1.07,7.82,3.22,1.8,1.82,2.7,4.52,2.7,8.08v20.47h-7.69v-13.56c0-3.7-.17-6.15-.5-7.36-.33-1.21-.91-2.14-1.73-2.77-.82-.63-1.84-.95-3.05-.95-1.57,0-2.92.53-4.05,1.58-1.13,1.05-1.91,2.51-2.34,4.36-.23.97-.34,3.06-.34,6.28v12.42h-7.77V8.01Z" fill="#0d2245"/><path d="M248.7,25.74h-24.96c.36,2.2,1.32,3.95,2.89,5.25,1.57,1.3,3.56,1.95,5.99,1.95,2.9,0,5.4-1.01,7.49-3.05l6.55,3.07c-1.63,2.32-3.59,4.03-5.86,5.14s-4.98,1.67-8.11,1.67c-4.86,0-8.81-1.53-11.87-4.6-3.06-3.06-4.58-6.9-4.58-11.51s1.52-8.65,4.57-11.77c3.05-3.12,6.86-4.68,11.46-4.68,4.88,0,8.84,1.56,11.9,4.68,3.05,3.12,4.58,7.24,4.58,12.37l-.03,1.48ZM240.92,19.62c-.51-1.73-1.53-3.13-3.04-4.21-1.51-1.08-3.26-1.62-5.26-1.62-2.17,0-4.07.61-5.7,1.82-1.03.76-1.98,2.1-2.85,4.01h16.85Z" fill="#0d2245"/><path d="M270.44,12.33l-4.81,4.81c-1.95-1.94-3.73-2.9-5.32-2.9-.87,0-1.56.19-2.05.56s-.74.83-.74,1.38c0,.42.16.8.47,1.15.31.35,1.09.83,2.32,1.44l2.85,1.42c3,1.48,5.06,2.99,6.18,4.53,1.12,1.54,1.68,3.34,1.68,5.41,0,2.75-1.01,5.05-3.03,6.89s-4.73,2.76-8.13,2.76c-4.52,0-8.12-1.76-10.82-5.29l4.78-5.21c.91,1.06,1.98,1.92,3.2,2.58,1.22.65,2.31.98,3.26.98,1.02,0,1.85-.25,2.48-.74.63-.49.94-1.06.94-1.71,0-1.2-1.13-2.36-3.39-3.5l-2.62-1.31c-5.01-2.52-7.51-5.68-7.51-9.48,0-2.45.94-4.54,2.83-6.28s4.3-2.6,7.24-2.6c2.01,0,3.9.44,5.68,1.32,1.77.88,3.28,2.15,4.51,3.8Z" fill="#0d2245"/><path d="M303.95,14.27l-6.47,3.56c-1.22-1.27-2.42-2.15-3.6-2.65-1.19-.49-2.58-.74-4.17-.74-2.91,0-5.26.87-7.05,2.6-1.8,1.73-2.69,3.96-2.69,6.66s.86,4.79,2.59,6.45c1.73,1.67,4,2.5,6.81,2.5,3.48,0,6.18-1.19,8.12-3.56l6.13,4.2c-3.32,4.32-8.01,6.48-14.06,6.48-5.45,0-9.71-1.61-12.79-4.84-3.08-3.23-4.63-7-4.63-11.33,0-3,.75-5.76,2.25-8.28s3.59-4.51,6.28-5.95c2.69-1.44,5.69-2.16,9.01-2.16,3.07,0,5.83.61,8.28,1.84,2.45,1.22,4.45,2.96,6.01,5.22Z" fill="#0d2245"/><path d="M306.26,8.01h7.86v14.92c0,2.9.2,4.92.6,6.05s1.04,2.01,1.93,2.63c.88.63,1.97.94,3.27.94s2.39-.31,3.3-.92c.9-.62,1.57-1.52,2.01-2.72.32-.89.49-2.8.49-5.72v-15.17h7.77v13.12c0,5.41-.43,9.11-1.28,11.1-1.04,2.43-2.58,4.29-4.61,5.59-2.03,1.3-4.61,1.95-7.74,1.95-3.4,0-6.14-.76-8.24-2.28-2.1-1.52-3.57-3.63-4.43-6.35-.61-1.88-.91-5.29-.91-10.25v-12.89Z" fill="#0d2245"/><path d="M14.41,43.7L2.05,31.34c-2.73-2.73-2.73-7.16,0-9.9L21.93,1.56C22.93.56,24.28,0,25.7,0h17.06c1.65,0,3,1.34,3,3v17.06c0,1.41-.56,2.77-1.56,3.77l-19.88,19.88c-2.73,2.73-7.16,2.73-9.9,0Z" fill="#5bd72c"/><rect x="29.27" y="8.37" width="8.1" height="8.1" rx="4.05" ry="4.05" transform="translate(18.55 -19.93) rotate(45)" fill="#fff"/><path d="M19.66,21.44l-8.81-8.81v27.51l8.81-8.81c2.73-2.73,2.73-7.16,0-9.9Z" fill="#4caf23"/><path d="M2.05,31.34l8.81,8.81V12.63L2.05,21.44c-2.73,2.73-2.73,7.16,0,9.9Z" fill="#acef8f"/></g></svg>