<?xml version="1.0" encoding="UTF-8"?><svg id="Layer_2" xmlns="http://www.w3.org/2000/svg" viewBox="0 0 1547.62 291.66"><g id="Layer_1-2"><path d="M577.54,221.22v70.44h-38.43V97.01l.95-.94h37.49v14.47c23.45-22.08,60.71-22.59,85.06-1.58,35.73,30.83,31.84,95.37-10.08,118.89-22.9,12.85-54.9,10.53-74.98-6.62ZM611.44,130.84c-44.25,1.87-41.45,71.85,5.47,67.73,42.1-3.69,39.14-69.61-5.47-67.73Z" fill="#0d2245"/><path d="M1037.07,179.71c.85,5.07,5.55,10.28,9.5,13.47,18.07,14.59,46.01,10.91,65.72,1.7l14.82,27.22c-8.04,5.72-17.54,9.18-27.16,11.27-40.03,8.71-87.36-4.01-100.23-46.89-17.79-59.27,37.85-109.57,95.45-90.26,32.56,10.92,47.03,41.41,45.2,74.36-.15,2.64-.46,7.05-1.57,9.13h-101.75ZM1101.96,153.3c-3.08-36.84-62.05-36.44-65.52,0h65.52Z" fill="#0d2245"/><path d="M766.5,93.11c52.42-3.17,90.41,45.85,72.59,95.74-22.96,64.3-119.24,61.25-137.81-4.59-12.82-45.49,18.39-88.31,65.21-91.14ZM794.76,187.67c29.3-29.21-11.76-75.4-44.46-49.73-36.79,28.88,11.63,82.46,44.46,49.73Z" fill="#0d2245"/><path d="M428.15,96.07v75.79c0,27.77,35.19,30.59,46.33,8.52.79-1.56,3.44-8.49,3.44-9.78v-73.58l.95-.94h38.75v136.48h-39.69v-15.09c-14.03,15.14-32.94,21.43-53.32,16.43-23.69-5.81-34.57-27.98-36.14-50.72v-87.1s39.69,0,39.69,0Z" fill="#0d2245"/><path d="M1458.16,96.07v75.79c0,27.77,35.19,30.59,46.33,8.52.79-1.56,3.44-8.49,3.44-9.78v-73.58l.95-.94h38.75v136.48h-39.69v-15.09c-14.03,15.14-32.94,21.43-53.32,16.43-23.69-5.81-34.57-27.98-36.14-50.72v-87.1s39.69,0,39.69,0Z" fill="#0d2245"/><path d="M985.32,232.54h-38.43v-72.01c0-1.94-1.11-7.53-1.7-9.62-7.43-26.13-48.7-20.23-48.7,8.99v72.64h-39.06V97.01l.95-.94h38.12v15.09c7.64-7.77,16.16-14.26,27.08-16.67,35.69-7.87,60.35,16.21,61.74,50.96v87.1Z" fill="#0d2245"/><path d="M1265.76,107.48l-14.42,29.47c-14.31-6.17-31.66-12.75-47.55-11.31-10.95.99-15.86,9.2-4.53,15.19,21.75,11.5,65.15,10,70.18,43.15,3.94,25.92-12.3,44.98-36.98,50.16-27.76,5.83-59.92-1.63-82.9-17.95l-.29-.91,15.76-28.02c15.38,7.98,36.18,16.52,53.85,15.08,6.4-.52,17.65-4.61,11.32-12.54-4.92-6.16-29.12-10.32-37.46-12.92-21.95-6.84-40.07-18.78-37.72-44.57,4.62-50.66,79.18-45.84,110.72-24.83Z" fill="#0d2245"/><path d="M353.04,187.93l18.91,30.39c-10.91,9.72-24.85,15.18-39.33,16.74-50.78,5.45-94.74-39.73-80.01-90.56,14.72-50.78,79.27-67.48,119.38-34.86l-19.83,31.08c-18.98-18.34-54.99-12.71-61.63,14.59-7.66,31.48,23.89,52.21,52.1,38.81,1.71-.81,9.78-6.62,10.42-6.18Z" fill="#0d2245"/><path d="M1383.05,187.93l18.91,30.39c-10.91,9.72-24.85,15.18-39.33,16.74-50.78,5.45-94.74-39.73-80.01-90.56,14.72-50.78,79.27-67.48,119.38-34.86l-19.83,31.08c-18.98-18.34-54.99-12.71-61.63,14.59-7.66,31.48,23.89,52.21,52.1,38.81,1.71-.81,9.78-6.62,10.42-6.18Z" fill="#0d2245"/><path d="M163.44,262.74H23.94c-13.22,0-23.94-10.72-23.94-23.94V99.45c0-8.41,3.34-16.48,9.29-22.43L81.08,5.22c6.96-6.96,18.26-6.96,25.22,0l71.79,71.8c5.95,5.95,9.29,14.02,9.29,22.43v139.35c0,13.22-10.72,23.94-23.94,23.94Z" fill="#5bd72c"/><path d="M93.69,211.71c-28.13,0-53.06-16.89-63.5-43.02l27.08-10.82c5.99,14.99,20.29,24.68,36.42,24.68s30.43-9.69,36.42-24.68l27.08,10.82c-10.44,26.13-35.37,43.02-63.5,43.02Z" fill="#fff"/></g></svg>